<svg version="1.2" xmlns="http://www.w3.org/2000/svg" width="1270" height="1484"><style>.s0{fill:#3DCCA8}</style><g id="Group_5105"><path id="Path_3179" class="s0" d="m611.8 287.3-.9 953.5c0 4.2-.7 8.3-2.1 12.2-1.5 4-3.5 7.6-6.2 10.9-2.7 3.2-5.9 5.9-9.5 8-3.6 2.2-7.5 3.6-11.6 4.4-121.6 23-579.5 83.9-579.1-302.7l.7-682.5c.3-375.2 609.1-383 608.7-3.8z"/><path id="Path_3180" class="s0" d="m1268 476.8-.9 953.4c0 4.2-.7 8.4-2.1 12.3-1.5 3.9-3.5 7.6-6.2 10.8-2.7 3.2-5.9 6-9.5 8.1-3.6 2.1-7.5 3.6-11.6 4.4-121.6 23-579.5 83.9-579.1-302.7l.7-682.6c.3-375.1 609.1-383 608.7-3.7z"/></g></svg>