<svg xmlns="http://www.w3.org/2000/svg" viewBox="0 0 527.07 200"><defs><style>.cls-1{fill:#fff}.cls-2{fill:#3dcca8}</style></defs><g><path d="M248.56 37.8v19.68l18.18-19.68h7.86l-15 16.2 15.36 23.4h-7.56l-12.42-19.08-6.42 6.9V77.4h-6.42V37.8h6.42ZM291.78 46.8c2.92 0 5.5.62 7.74 1.86 2.24 1.24 3.99 3.03 5.25 5.37 1.26 2.34 1.89 5.13 1.89 8.37s-.63 6.03-1.89 8.37c-1.26 2.34-3.01 4.13-5.25 5.37-2.24 1.24-4.82 1.86-7.74 1.86s-5.5-.62-7.74-1.86c-2.24-1.24-4-3.03-5.28-5.37-1.28-2.34-1.92-5.13-1.92-8.37s.64-6.03 1.92-8.37c1.28-2.34 3.04-4.13 5.28-5.37 2.24-1.24 4.82-1.86 7.74-1.86Zm0 5.04c-2.64 0-4.72.91-6.24 2.73-1.52 1.82-2.28 4.43-2.28 7.83s.76 6.01 2.28 7.83c1.52 1.82 3.6 2.73 6.24 2.73s4.71-.91 6.21-2.73c1.5-1.82 2.25-4.43 2.25-7.83s-.75-6.01-2.25-7.83c-1.5-1.82-3.57-2.73-6.21-2.73ZM313.62 77.4v-30h5.7l.3 5.16c1-2 2.39-3.46 4.17-4.38 1.78-.92 3.77-1.38 5.97-1.38s4.03.41 5.73 1.23c1.7.82 3.05 2.06 4.05 3.72 1 1.66 1.5 3.73 1.5 6.21V77.4h-6.42V59.94c0-2.96-.61-5.01-1.83-6.15-1.22-1.14-2.75-1.71-4.59-1.71-1.32 0-2.6.3-3.84.9-1.24.6-2.27 1.59-3.09 2.97-.82 1.38-1.23 3.21-1.23 5.49V77.4h-6.42ZM368.56 47.4v5.04h-10.32V68.4c0 1.44.4 2.51 1.2 3.21.8.7 1.84 1.05 3.12 1.05 1.12 0 2.07-.17 2.85-.51a8.34 8.34 0 0 0 2.19-1.41l1.44 4.68c-.92.8-2.05 1.43-3.39 1.89-1.34.46-2.83.69-4.47.69-2.64 0-4.86-.65-6.66-1.95s-2.7-3.49-2.7-6.57V52.44h-5.76V47.4h5.76v-7.02l6.42-1.8v8.82h10.32ZM387.03 78c-3 0-5.63-.62-7.89-1.86-2.26-1.24-4.03-3.03-5.31-5.37-1.28-2.34-1.92-5.13-1.92-8.37s.63-6.03 1.89-8.37c1.26-2.34 3-4.13 5.22-5.37 2.22-1.24 4.77-1.86 7.65-1.86s5.4.6 7.44 1.8c2.04 1.2 3.6 2.84 4.68 4.92 1.08 2.08 1.62 4.44 1.62 7.08 0 .76-.02 1.46-.06 2.1-.04.64-.1 1.18-.18 1.62h-21.96c.28 2.8 1.19 4.93 2.73 6.39s3.53 2.19 5.97 2.19c2 0 3.62-.38 4.86-1.14 1.24-.76 2.22-1.82 2.94-3.18l5.1 2.4c-1.04 2.2-2.69 3.92-4.95 5.16-2.26 1.24-4.87 1.86-7.83 1.86Zm-.48-26.1c-2.2 0-4.01.64-5.43 1.92-1.42 1.28-2.33 3.14-2.73 5.58h15.78c-.16-2.4-.92-4.25-2.28-5.55-1.36-1.3-3.14-1.95-5.34-1.95ZM407.54 77.4v-30h5.7l.3 5.16c1-2 2.39-3.46 4.17-4.38 1.78-.92 3.77-1.38 5.97-1.38s4.03.41 5.73 1.23c1.7.82 3.05 2.06 4.05 3.72 1 1.66 1.5 3.73 1.5 6.21V77.4h-6.42V59.94c0-2.96-.61-5.01-1.83-6.15-1.22-1.14-2.75-1.71-4.59-1.71-1.32 0-2.6.3-3.84.9-1.24.6-2.27 1.59-3.09 2.97-.82 1.38-1.23 3.21-1.23 5.49V77.4h-6.42ZM462.48 47.4v5.04h-10.32V68.4c0 1.44.4 2.51 1.2 3.21.8.7 1.84 1.05 3.12 1.05 1.12 0 2.07-.17 2.85-.51a8.34 8.34 0 0 0 2.19-1.41l1.44 4.68c-.92.8-2.05 1.43-3.39 1.89-1.34.46-2.83.69-4.47.69-2.64 0-4.86-.65-6.66-1.95s-2.7-3.49-2.7-6.57V52.44h-5.76V47.4h5.76v-7.02l6.42-1.8v8.82h10.32Z"/><path class="cls-2" d="M473.3 69.3c1.36 0 2.45.39 3.27 1.17.82.78 1.23 1.83 1.23 3.15s-.41 2.38-1.23 3.18c-.82.8-1.91 1.2-3.27 1.2s-2.51-.4-3.33-1.2c-.82-.8-1.23-1.86-1.23-3.18s.41-2.37 1.23-3.15c.82-.78 1.93-1.17 3.33-1.17Z"/><path d="M503.57 58.14c0-2-.55-3.55-1.65-4.65-1.1-1.1-2.61-1.65-4.53-1.65-1.8 0-3.35.42-4.65 1.26-1.3.84-2.23 2.2-2.79 4.08l-5.4-2.28c.76-2.44 2.25-4.4 4.47-5.88 2.22-1.48 5.09-2.22 8.61-2.22 2.36 0 4.47.39 6.33 1.17 1.86.78 3.32 1.96 4.38 3.54s1.59 3.57 1.59 5.97v13.38c0 1.48.74 2.22 2.22 2.22.72 0 1.42-.1 2.1-.3l-.36 4.44c-.92.44-2.08.66-3.48.66-1.6 0-2.98-.36-4.14-1.08-1.16-.72-1.94-1.8-2.34-3.24-.96 1.48-2.34 2.59-4.14 3.33-1.8.74-3.6 1.11-5.4 1.11-2.84 0-5.2-.68-7.08-2.04-1.88-1.36-2.82-3.4-2.82-6.12 0-2.2.73-4.02 2.19-5.46 1.46-1.44 3.53-2.44 6.21-3l10.68-2.1v-1.14Zm-12.6 11.22c0 1.12.43 2.01 1.29 2.67.86.66 2.01.99 3.45.99 1.36 0 2.64-.22 3.84-.66 1.2-.44 2.17-1.16 2.91-2.16.74-1 1.11-2.3 1.11-3.9v-2.52l-7.56 1.56c-1.72.32-2.99.78-3.81 1.38-.82.6-1.23 1.48-1.23 2.64ZM522.81 42.36c-1.4 0-2.47-.35-3.21-1.05-.74-.7-1.11-1.69-1.11-2.97s.37-2.26 1.11-2.94c.74-.68 1.81-1.02 3.21-1.02s2.41.34 3.15 1.02c.74.68 1.11 1.66 1.11 2.94s-.37 2.27-1.11 2.97c-.74.7-1.79 1.05-3.15 1.05Zm3.18 5.04v30h-6.42v-30h6.42Z"/><g><path d="M255.86 153.16h26.48v10.64H242.1V111h13.76v42.16ZM307.83 164.6c-6.67 0-11.93-1.81-15.8-5.44-3.87-3.63-5.8-8.75-5.8-15.36 0-4.37.89-8.12 2.68-11.24 1.79-3.12 4.24-5.49 7.36-7.12s6.76-2.44 10.92-2.44 7.8.81 10.76 2.44 5.21 3.87 6.76 6.72c1.55 2.85 2.32 6.12 2.32 9.8 0 1.01-.04 1.99-.12 2.92-.08.93-.15 1.72-.2 2.36h-27.28c.37 2.77 1.28 4.76 2.72 5.96 1.44 1.2 3.33 1.8 5.68 1.8 2.03 0 3.64-.4 4.84-1.2 1.2-.8 2.09-1.92 2.68-3.36l10.88 3.6a12.67 12.67 0 0 1-3.88 5.8c-1.84 1.57-4.03 2.76-6.56 3.56-2.53.8-5.19 1.2-7.96 1.2Zm-.64-32.08c-4.32 0-6.88 2.48-7.68 7.44h14.64c-.59-4.96-2.91-7.44-6.96-7.44ZM355.96 138.44c0-1.87-.52-3.35-1.56-4.44-1.04-1.09-2.44-1.64-4.2-1.64s-3.27.44-4.52 1.32c-1.25.88-2.12 2.44-2.6 4.68l-11.52-2.72c.75-3.84 2.72-6.91 5.92-9.2 3.2-2.29 7.71-3.44 13.52-3.44s10.41 1.29 13.64 3.88c3.23 2.59 4.84 6.36 4.84 11.32v14.64c0 2.08.93 3.12 2.8 3.12.96 0 1.73-.11 2.32-.32l-.8 7.76c-1.6.75-3.55 1.12-5.84 1.12-2.51 0-4.67-.49-6.48-1.48-1.81-.99-3.04-2.49-3.68-4.52-1.12 2.08-2.89 3.61-5.32 4.6-2.43.99-5 1.48-7.72 1.48-4.11 0-7.37-.95-9.8-2.84-2.43-1.89-3.64-4.63-3.64-8.2 0-2.88.87-5.27 2.6-7.16 1.73-1.89 4.47-3.21 8.2-3.96l13.84-2.88v-1.12Zm-11.2 13.84c0 1.17.43 2.05 1.28 2.64.85.59 1.87.88 3.04.88 1.81 0 3.41-.55 4.8-1.64 1.39-1.09 2.08-2.81 2.08-5.16v-2.24l-6.48 1.36c-1.6.32-2.79.79-3.56 1.4-.77.61-1.16 1.53-1.16 2.76ZM379.32 163.8v-40h12l.56 8.64c.96-2.93 2.44-5.24 4.44-6.92 2-1.68 4.57-2.52 7.72-2.52 1.01 0 1.88.09 2.6.28.72.19 1.29.39 1.72.6l-1.36 11.2c-.53-.16-1.21-.32-2.04-.48-.83-.16-1.83-.24-3-.24-2.45 0-4.57.77-6.36 2.32-1.79 1.55-2.68 3.87-2.68 6.96v20.16h-13.6ZM412.74 163.8v-40h12.16l.4 8.08c1.23-2.93 3.01-5.15 5.36-6.64 2.35-1.49 5.12-2.24 8.32-2.24 4.11 0 7.44 1.2 10 3.6 2.56 2.4 3.84 5.92 3.84 10.56v26.64h-13.6v-23.04c0-2.77-.53-4.69-1.6-5.76-1.07-1.07-2.43-1.6-4.08-1.6-1.97 0-3.67.69-5.08 2.08-1.41 1.39-2.12 3.76-2.12 7.12v21.2h-13.6Z"/></g><g><path class="cls-2" d="M100 0c55.23 0 100 44.77 100 100s-44.77 100-100 100S0 155.23 0 100 44.77 0 100 0Z"/><path class="cls-1" d="M71.53 54.94v44.55c.01.84-.59 1.57-1.42 1.71-5.69 1.14-27.04 3.99-27.04-14.23V55.23C43.07 47.37 49.44 41 57.3 41s14.23 6.37 14.23 14.23"/><path class="cls-1" d="M114.23 83.41v44.7c-.06.79-.64 1.44-1.42 1.57-5.69 1.13-27.04 3.98-27.04-14.24V83.7c0-7.86 6.37-14.23 14.23-14.23s14.23 6.37 14.23 14.23"/><path class="cls-1" d="M156.94 111.88v44.7c-.06.79-.64 1.44-1.42 1.57-5.69 1.13-27.04 3.98-27.04-14.24v-31.74c0-7.86 6.37-14.23 14.23-14.23s14.23 6.37 14.23 14.23"/></g></g></svg>