<svg xmlns="http://www.w3.org/2000/svg" id="Petals_Type_2" data-name="Petals Type 2" width="1406.913" height="1221.274"><g id="Group_3572" data-name="Group 3572" transform="rotate(-14.98 180.265 11189.66)"><path id="Path_2706" data-name="Path 2706" d="m3376.925 597.418-416.689 388.567a21.583 21.583 0 0 1-27.5 1.657c-59.654-43.715-273.017-218.755-104.072-376.3l298.292-278.16c163.955-152.891 415.695 109.7 249.972 264.236" transform="translate(94.501 215.52)" fill="#3DCCA8"/></g><g id="Group_3571" data-name="Group 3571" transform="rotate(-14.98 755.012 10205.588)"><path id="Path_2706-2" data-name="Path 2706" d="m3604.011 712.6-571.289 532.735a29.591 29.591 0 0 1-37.708 2.272c-81.787-59.934-374.312-299.918-142.685-515.917l408.964-381.363c224.785-209.616 569.927 150.4 342.717 362.273" transform="translate(94.501 215.52)" fill="#3DCCA8"/></g></svg>